<?xml version="1.0" encoding="UTF-8" standalone="no"?>
<!-- Created with Inkscape (http://www.inkscape.org/) -->

<svg
   xmlns:dc="http://purl.org/dc/elements/1.1/"
   xmlns:cc="http://creativecommons.org/ns#"
   xmlns:rdf="http://www.w3.org/1999/02/22-rdf-syntax-ns#"
   xmlns:svg="http://www.w3.org/2000/svg"
   xmlns="http://www.w3.org/2000/svg"
   xmlns:sodipodi="http://sodipodi.sourceforge.net/DTD/sodipodi-0.dtd"
   xmlns:inkscape="http://www.inkscape.org/namespaces/inkscape"
   width="84"
   height="56.00005"
   id="svg2"
   version="1.1"
   inkscape:version="0.48.2 r9819"
   sodipodi:docname="byosm.svg"
   inkscape:export-filename="./byosm.png"
   inkscape:export-xdpi="90"
   inkscape:export-ydpi="90">
  <defs
     id="defs4">
    <clipPath
       clipPathUnits="userSpaceOnUse"
       id="clipPath3009">
      <rect
         style="color:#000000;fill:#5789ad;fill-opacity:1;fill-rule:nonzero;stroke:none;stroke-width:1.5;marker:none;visibility:visible;display:inline;overflow:visible;enable-background:accumulate"
         id="rect3011"
         width="200"
         height="99.999962"
         x="0"
         y="952.36218" />
    </clipPath>
  </defs>
  <sodipodi:namedview
     id="base"
     pagecolor="#ffffff"
     bordercolor="#666666"
     borderopacity="1.0"
     inkscape:pageopacity="0.0"
     inkscape:pageshadow="2"
     inkscape:zoom="16"
     inkscape:cx="72.88105"
     inkscape:cy="8.1015089"
     inkscape:document-units="px"
     inkscape:current-layer="layer8"
     showgrid="false"
     inkscape:snap-midpoints="false"
     inkscape:snap-bbox="true"
     showguides="false"
     inkscape:guide-bbox="true"
     inkscape:window-width="1227"
     inkscape:window-height="733"
     inkscape:window-x="696"
     inkscape:window-y="138"
     inkscape:window-maximized="0"
     fit-margin-top="0"
     fit-margin-left="0"
     fit-margin-right="0"
     fit-margin-bottom="0"
     inkscape:object-paths="true"
     inkscape:object-nodes="true">
    <inkscape:grid
       type="xygrid"
       id="grid2985"
       empspacing="5"
       visible="true"
       enabled="true"
       snapvisiblegridlinesonly="true"
       spacingx="1px"
       spacingy="1px" />
    <sodipodi:guide
       orientation="0.33633674,-0.94174179"
       position="35,38"
       id="guide7972" />
    <sodipodi:guide
       orientation="-0.35112355,-0.93632914"
       position="35,38"
       id="guide7974" />
  </sodipodi:namedview>
  <metadata
     id="metadata7">
    <rdf:RDF>
      <cc:Work
         rdf:about="">
        <dc:format>image/svg+xml</dc:format>
        <dc:type
           rdf:resource="http://purl.org/dc/dcmitype/StillImage" />
        <dc:title />
      </cc:Work>
    </rdf:RDF>
  </metadata>
  <g
     inkscape:groupmode="layer"
     id="layer8"
     inkscape:label="By OSM"
     style="opacity:0.98000004;display:inline"
     transform="translate(12,-144)">
    <rect
       style="color:#000000;fill:#000000;fill-opacity:0;fill-rule:nonzero;stroke:none;stroke-width:1.5;marker:none;visibility:visible;display:inline;overflow:visible;enable-background:accumulate"
       id="rect4212"
       width="28"
       height="28"
       x="44"
       y="172" />
    <g
       style="opacity:0.98000004;display:inline"
       transform="translate(-1029,-133.36218)"
       id="g5611">
      <path
         sodipodi:nodetypes="cccscsscccscccsccccccccccccscccscscccscscccscccccccccccccccscccscccscscscscsccsccccccscccssccccscscccsccscccccscccsccsccscscccscsccccccccccccssccscccscscscccss"
         inkscape:connector-curvature="0"
         id="path3323-5"
         transform="translate(-260,-157.63782)"
         d="m 1347,466 0,5.375 1.6563,0.625 1.2812,0 c 0.256,0 0.51,-0.0297 0.75,-0.0937 0.2453,-0.064 0.4762,-0.13926 0.6563,-0.28125 0.5478,-0.43174 0.6562,-1.05881 0.6562,-1.53128 0,-0.45113 -0.1365,-0.74932 -0.3125,-1.00002 -0.1707,-0.256 -0.4291,-0.39865 -0.7813,-0.49995 0.2563,-0.1227 0.4658,-0.27675 0.5938,-0.46875 0.1333,-0.192 0.1875,-0.43075 0.1875,-0.71875 0,-0.2667 -0.034,-0.5062 -0.125,-0.6875 -0.085,-0.1814 -0.215,-0.29955 -0.375,-0.40625 -0.16,-0.112 -0.3699,-0.202 -0.5937,-0.25 -0.2243,-0.048 -0.4504,-0.0625 -0.7188,-0.0625 z m 5.6563,0 2.0937,3.78125 0,2.1875 1.25,-0.46875 0,-1.6875 2.125,-3.8125 -1.4062,0 -1.3125,2.5625 -1.3437,-2.5625 z m -4.4063,0.96875 1.3438,0 c 0.1116,0 0.2424,0.0102 0.3437,0.0312 0.1067,0.016 0.2011,0.0457 0.2813,0.0937 0.08,0.048 0.1394,0.1022 0.1874,0.1875 0.049,0.085 0.063,0.21035 0.063,0.34375 0,0.24 -0.075,0.3933 -0.2188,0.5 -0.144,0.1066 -0.3387,0.17777 -0.5625,0.1875 l -1.4375,0 z m 0,2.32924 1.5625,0 c 0.272,0 0.4907,0.059 0.6563,0.1875 0.165,0.1227 0.2187,0.3317 0.2187,0.625 0,0.1494 -0.011,0.44976 -0.062,0.54576 -0.048,0.096 -0.1022,0.16005 -0.1875,0.21875 -0.085,0.053 -0.2005,0.098 -0.3125,0.125 -0.112,0.021 -0.2209,0.0312 -0.3438,0.0312 l -1.5312,0 z M 1343.5,471 1337.4062,473.59375 1336,475 l 0,13 1.5625,1.5625 5.9375,-2.5625 8,3 7.0938,-2.59375 L 1360,486 l 0,-13 -1.5625,-1.5625 L 1351.5,474 z m -2.3126,5.84375 c 0.4982,0 0.9222,0.076 1.3126,0.25 0.3896,0.174 0.7296,0.41275 1,0.71875 0.2696,0.306 0.4806,0.67975 0.625,1.09375 0.1436,0.408 0.2187,0.8325 0.2187,1.3125 0,0.468 -0.075,0.9045 -0.2187,1.3125 -0.1442,0.402 -0.3552,0.7625 -0.625,1.0625 -0.2704,0.3 -0.6103,0.54475 -1,0.71875 -0.3904,0.168 -0.8144,0.25 -1.3126,0.25 -0.4918,0 -0.9477,-0.082 -1.3437,-0.25 -0.39,-0.174 -0.73,-0.41875 -1,-0.71875 -0.27,-0.3 -0.481,-0.6605 -0.625,-1.0625 -0.144,-0.408 -0.2187,-0.8445 -0.2187,-1.3125 0,-0.48 0.075,-0.9045 0.2187,-1.3125 0.144,-0.414 0.355,-0.78775 0.625,-1.09375 0.27,-0.306 0.61,-0.54475 1,-0.71875 0.396,-0.174 0.8519,-0.25 1.3437,-0.25 z m 6.2189,0 c 0.3358,0 0.6627,0.047 0.9687,0.125 0.312,0.072 0.5725,0.17575 0.8125,0.34375 0.24,0.168 0.4554,0.39225 0.5938,0.65625 0.1438,0.258 0.2187,0.5655 0.2187,0.9375 l -1.375,0 c -0.012,-0.192 -0.053,-0.34275 -0.125,-0.46875 -0.066,-0.126 -0.1669,-0.2405 -0.2813,-0.3125 -0.1139,-0.072 -0.2562,-0.12625 -0.4062,-0.15625 -0.144,-0.03 -0.2946,-0.0312 -0.4688,-0.0312 -0.1139,0 -0.2297,0.0102 -0.3437,0.0312 -0.114,0.024 -0.2165,0.065 -0.3125,0.125 -0.09,0.06 -0.1586,0.12875 -0.2188,0.21875 -0.06,0.09 -0.094,0.20575 -0.094,0.34375 0,0.126 0.014,0.2345 0.062,0.3125 0.048,0.078 0.1435,0.15275 0.2812,0.21875 0.1442,0.066 0.3478,0.1215 0.5938,0.1875 0.252,0.066 0.5666,0.148 0.9688,0.25 0.1196,0.024 0.2896,0.0901 0.5,0.15625 0.2156,0.06 0.4462,0.14325 0.6562,0.28125 0.21,0.138 0.3815,0.3285 0.5312,0.5625 0.1562,0.228 0.2188,0.515 0.2188,0.875 0,0.294 -0.042,0.59175 -0.1562,0.84375 -0.1144,0.252 -0.2722,0.47025 -0.5,0.65625 -0.2223,0.18 -0.5078,0.30425 -0.8438,0.40625 -0.33,0.102 -0.7186,0.15625 -1.1562,0.15625 -0.3544,0 -0.6953,-0.035 -1.0313,-0.125 -0.33,-0.084 -0.617,-0.22025 -0.875,-0.40625 -0.252,-0.186 -0.475,-0.43075 -0.625,-0.71875 -0.15,-0.288 -0.225,-0.63525 -0.2187,-1.03125 l 1.375,0 c 0,0.216 0.047,0.4125 0.125,0.5625 0.078,0.15 0.1865,0.24775 0.3124,0.34375 0.1323,0.09 0.2634,0.17075 0.4376,0.21875 0.1739,0.042 0.3767,0.0625 0.5624,0.0625 0.1262,0 0.2623,-0.0133 0.4063,-0.0312 0.144,-0.024 0.2799,-0.065 0.4063,-0.125 0.1259,-0.06 0.2285,-0.148 0.3124,-0.25 0.084,-0.108 0.125,-0.24425 0.125,-0.40625 0,-0.174 -0.073,-0.29825 -0.1874,-0.40625 -0.1082,-0.108 -0.2574,-0.20925 -0.4376,-0.28125 -0.1798,-0.072 -0.3657,-0.1335 -0.5937,-0.1875 -0.228,-0.054 -0.4535,-0.1215 -0.6875,-0.1875 -0.24,-0.06 -0.4905,-0.1035 -0.7188,-0.1875 -0.2278,-0.09 -0.4137,-0.20575 -0.5937,-0.34375 -0.18,-0.138 -0.3549,-0.32725 -0.4687,-0.53125 -0.1082,-0.21 -0.1563,-0.456 -0.1563,-0.75 0,-0.33 0.081,-0.60375 0.2187,-0.84375 0.1442,-0.246 0.3342,-0.463 0.5626,-0.625 0.2277,-0.162 0.4617,-0.26575 0.75,-0.34375 0.288,-0.078 0.5873,-0.10702 0.875,-0.125 z m 3.5934,0.15625 2,0 1.5157,4.40625 1.5158,-4.40625 2,0 0,6.40625 -1.3437,0 0,-4.53125 -1.6878,4.53125 -1.0938,0 -1.5625,-4.5 -0.031,4.5 -1.3124,0 z m -9.8123,1.03125 c -0.3179,0 -0.5909,0.061 -0.8124,0.1875 -0.2223,0.12 -0.4242,0.29 -0.5626,0.5 -0.1375,0.204 -0.2152,0.4235 -0.2812,0.6875 -0.06,0.264 -0.094,0.5305 -0.094,0.8125 0,0.27 0.034,0.5545 0.094,0.8125 0.066,0.252 0.1436,0.4835 0.2812,0.6875 0.1383,0.204 0.3403,0.34275 0.5626,0.46875 0.2219,0.12 0.4949,0.1875 0.8124,0.1875 0.3182,0 0.5593,-0.067 0.7813,-0.1875 0.222,-0.126 0.4245,-0.26475 0.5625,-0.46875 0.138,-0.204 0.2216,-0.4355 0.2812,-0.6875 0.066,-0.258 0.094,-0.5425 0.094,-0.8125 0,-0.282 -0.027,-0.5485 -0.094,-0.8125 -0.06,-0.264 -0.1432,-0.4835 -0.2812,-0.6875 -0.138,-0.21 -0.3405,-0.38 -0.5625,-0.5 -0.222,-0.126 -0.4629,-0.1875 -0.7813,-0.1875 z"
         style="opacity:0.5;color:#000000;fill:#1a1a1a;fill-opacity:1;fill-rule:nonzero;stroke:none;stroke-width:10;marker:none;visibility:visible;display:inline;overflow:visible;enable-background:accumulate" />
      <path
         sodipodi:nodetypes="ccccccccccccccscccccccccccccccccccccccscccscccscccsccsccccccccccccccccccscccscccccccccscccccccscccscscccccccccccccccscccscccscccscccsccccscsccsccscccsccscccccscccscsccccsssccsccccccscccccccccccccccccscccscccscccscccs"
         id="path4235-6"
         d="m 1086,308.36214 0,4.875 -2.1562,-0.8125 c -0.2415,-0.0863 -0.5165,-0.0749 -0.75,0.0312 l -6.0938,2.5938 c -0.1144,0.0427 -0.221,0.10662 -0.3125,0.1875 l -1.4063,1.40625 c -0.1837,0.18979 -0.2812,0.71875 -0.2812,0.71875 l 0,13 c 0,0 0.098,0.52896 0.2812,0.71875 l 1.5626,1.5625 c 0.2899,0.28217 0.7593,0.3604 1.125,0.1875 l 5.5624,-2.40625 7.625,2.86719 c 0.1099,0.0402 0.2268,0.0704 0.3438,0.0704 0.117,0 0.2339,-0.0302 0.3438,-0.0704 l 7.0937,-2.58594 c 0.139,-0.0444 0.268,-0.11965 0.375,-0.21875 l 1.4063,-1.40625 c 0.1837,-0.18979 0.2812,-0.71875 0.2812,-0.71875 l 0,-13 c 0,0 -0.098,-0.52896 -0.2812,-0.71875 l -1.5626,-1.5625 c -0.2727,-0.26773 -0.7061,-0.35697 -1.0624,-0.21875 l -1.0938,0.40625 0,-0.8125 2,-3.59375 c 0.3505,-0.60722 -0.1612,-1.49996 -0.875,-1.49996 l -1.4062,-4e-5 c -0.3529,0.003 -0.7071,0.21484 -0.875,0.53125 l -0.4376,0.875 -0.4687,-0.875 c -0.1679,-0.31641 -0.5333,-0.52838 -0.875,-0.53125 l -1.4063,0 c -0.336,0 -0.699,0.19511 -0.875,0.5 0,-0.003 -0.027,0.003 -0.031,0 -0.01,-0.006 -0.023,0.006 -0.031,0 -0.2838,-0.19363 -0.567,-0.33349 -0.9063,-0.40625 -0.3185,-0.0682 -0.516,-0.0937 -0.8129,-0.0937 l -2.9996,10e-6 c -0.6406,0 -1.0004,0.43191 -1.0004,0.99994 z m 1,0 2.875,0 c 0.2684,0 0.4944,0.0145 0.7188,0.0625 0.2238,0.048 0.4337,0.138 0.5937,0.25 0.16,0.1067 0.29,0.22485 0.375,0.40625 0.091,0.1813 0.125,0.4208 0.125,0.6875 0,0.288 -0.054,0.52675 -0.1875,0.71875 -0.128,0.192 -0.3374,0.34605 -0.5938,0.46875 0.3522,0.1013 0.6106,0.244 0.7813,0.5 0.176,0.2507 0.3125,0.54887 0.3125,1 0,0.47247 -0.1084,1.09951 -0.6562,1.53125 -0.1802,0.14199 -0.411,0.21725 -0.6563,0.28125 -0.24,0.064 -0.494,0.0937 -0.75,0.0937 l -1.2813,0 -1.6562,-0.625 0,-5.375 z m 5.6562,0 1.4063,0 1.3437,2.5625 1.3126,-2.5625 1.4062,0 -2.125,3.8125 0,1.6875 -1.25,0.46875 0,-2.1875 z m -4.4062,0.96875 0,1.34375 1.4375,0 c 0.2238,-0.01 0.4185,-0.0809 0.5625,-0.1875 0.1438,-0.1067 0.2188,-0.26 0.2188,-0.5 0,-0.1334 -0.014,-0.25875 -0.063,-0.34375 -0.048,-0.0853 -0.1075,-0.1395 -0.1874,-0.1875 -0.08,-0.048 -0.1746,-0.0777 -0.2813,-0.0937 -0.1013,-0.021 -0.2322,-0.0312 -0.3437,-0.0312 l -1.3438,0 z m 4.3125,0.90625 1.1875,2.1875 0,1.90625 c 0,0.0416 0,0.0834 0,0.125 l -2.25,0.84375 -0.375,-0.15625 c 0.2539,-0.0719 0.5408,-0.13626 0.8438,-0.375 0.867,-0.68343 1.0312,-1.68707 1.0312,-2.3125 0,-0.641 -0.2543,-1.17346 -0.5,-1.53125 l 0,-0.0312 c -0.033,-0.0475 -0.089,-0.0505 -0.125,-0.0937 0.093,-0.18921 0.1538,-0.36801 0.1875,-0.5625 z m -4.3125,1.4375 0,1.71875 1.5312,0 c 0.1229,0 0.2318,-0.0102 0.3438,-0.0312 0.112,-0.027 0.2275,-0.072 0.3125,-0.125 0.085,-0.0587 0.1395,-0.12275 0.1875,-0.21875 0.051,-0.096 0.062,-0.38185 0.062,-0.53125 0,-0.2933 -0.054,-0.5023 -0.2187,-0.625 -0.1656,-0.1285 -0.3843,-0.1875 -0.6563,-0.1875 l -1.5625,0 z m -4.75,1.6875 8,3 6.9375,-2.5625 1.5625,1.5625 0,13 -1.4062,1.40625 -7.0938,2.59375 -8,-3 -5.9375,2.5625 -1.5625,-1.5625 0,-13 1.4062,-1.40625 z m -2.3125,5.84375 c -0.4918,0 -0.9478,0.076 -1.3437,0.25 -0.3901,0.174 -0.7301,0.41275 -1,0.71875 -0.27,0.306 -0.481,0.67975 -0.625,1.09375 -0.1437,0.408 -0.2188,0.8325 -0.2188,1.3125 0,0.468 0.075,0.9045 0.2188,1.3125 0.144,0.402 0.355,0.7625 0.625,1.0625 0.2699,0.3 0.6099,0.54475 1,0.71875 0.3959,0.168 0.8519,0.25 1.3437,0.25 0.4982,0 0.9221,-0.082 1.3125,-0.25 0.3897,-0.174 0.7296,-0.41875 1,-0.71875 0.2698,-0.3 0.4808,-0.6605 0.625,-1.0625 0.1437,-0.408 0.2188,-0.8445 0.2188,-1.3125 0,-0.48 -0.075,-0.9045 -0.2188,-1.3125 -0.1444,-0.414 -0.3554,-0.78775 -0.625,-1.09375 -0.2704,-0.306 -0.6104,-0.54475 -1,-0.71875 -0.3904,-0.174 -0.8143,-0.25 -1.3125,-0.25 z m 6.2187,0 c -0.2876,0.018 -0.5869,0.047 -0.875,0.125 -0.2883,0.078 -0.5223,0.18175 -0.75,0.34375 -0.2284,0.162 -0.4183,0.379 -0.5624,0.625 -0.1377,0.24 -0.2188,0.51375 -0.2188,0.84375 0,0.294 0.048,0.54 0.1562,0.75 0.1138,0.204 0.2888,0.39325 0.4688,0.53125 0.18,0.138 0.366,0.25375 0.5938,0.34375 0.2283,0.084 0.4787,0.1275 0.7187,0.1875 0.234,0.066 0.4595,0.1335 0.6875,0.1875 0.228,0.054 0.414,0.1155 0.5938,0.1875 0.1802,0.072 0.3293,0.17325 0.4374,0.28125 0.1144,0.108 0.1876,0.23225 0.1876,0.40625 0,0.162 -0.041,0.29825 -0.125,0.40625 -0.084,0.102 -0.1866,0.19 -0.3126,0.25 -0.1264,0.06 -0.2622,0.101 -0.4062,0.125 -0.144,0.0179 -0.2801,0.0312 -0.4062,0.0312 -0.1858,0 -0.3886,-0.0205 -0.5626,-0.0625 -0.1741,-0.048 -0.3052,-0.12875 -0.4374,-0.21875 -0.126,-0.096 -0.2346,-0.19375 -0.3126,-0.34375 -0.078,-0.15 -0.125,-0.3465 -0.125,-0.5625 l -1.375,0 c -0.01,0.396 0.069,0.74325 0.2188,1.03125 0.15,0.288 0.373,0.53275 0.625,0.71875 0.258,0.186 0.545,0.32225 0.875,0.40625 0.336,0.09 0.6769,0.125 1.0312,0.125 0.4376,0 0.8263,-0.0543 1.1563,-0.15625 0.336,-0.102 0.6215,-0.22625 0.8437,-0.40625 0.2278,-0.186 0.3857,-0.40425 0.5,-0.65625 0.1142,-0.252 0.1563,-0.54975 0.1563,-0.84375 0,-0.36 -0.063,-0.647 -0.2187,-0.875 -0.1497,-0.234 -0.3213,-0.4245 -0.5313,-0.5625 -0.21,-0.138 -0.4407,-0.22125 -0.6563,-0.28125 -0.2103,-0.0661 -0.3804,-0.13225 -0.5,-0.15625 -0.4021,-0.102 -0.7167,-0.184 -0.9687,-0.25 -0.246,-0.066 -0.4496,-0.1215 -0.5937,-0.1875 -0.1377,-0.066 -0.2333,-0.14075 -0.2813,-0.21875 -0.048,-0.078 -0.062,-0.1865 -0.062,-0.3125 0,-0.138 0.034,-0.25375 0.094,-0.34375 0.06,-0.09 0.1287,-0.15875 0.2187,-0.21875 0.096,-0.06 0.1985,-0.101 0.3125,-0.125 0.114,-0.021 0.2298,-0.0312 0.3438,-0.0312 0.1741,0 0.3247,10e-4 0.4687,0.0312 0.15,0.03 0.2923,0.0842 0.4063,0.15625 0.1143,0.072 0.2152,0.1865 0.2812,0.3125 0.072,0.126 0.113,0.27675 0.125,0.46875 l 1.375,0 c 0,-0.372 -0.075,-0.6795 -0.2188,-0.9375 -0.1384,-0.264 -0.3537,-0.48825 -0.5937,-0.65625 -0.24,-0.168 -0.5005,-0.27175 -0.8125,-0.34375 -0.306,-0.078 -0.6329,-0.125 -0.9688,-0.125 z m 3.5938,0.15625 0,6.40625 1.3125,0 0.031,-4.5 1.5624,4.5 1.0938,0 1.6875,-4.53125 0,4.53125 1.3437,0 0,-6.40625 -2,0 -1.5312,4.40625 -1.4997,-4.40625 z m -9.8125,1.03125 c 0.3184,0 0.5593,0.0615 0.7813,0.1875 0.2219,0.12 0.4245,0.29 0.5624,0.5 0.1381,0.204 0.2213,0.4235 0.2813,0.6875 0.067,0.264 0.094,0.5305 0.094,0.8125 0,0.27 -0.028,0.5545 -0.094,0.8125 -0.06,0.252 -0.1433,0.4835 -0.2813,0.6875 -0.1379,0.204 -0.3405,0.34275 -0.5624,0.46875 -0.222,0.1205 -0.4631,0.1875 -0.7813,0.1875 -0.3175,0 -0.5906,-0.0675 -0.8125,-0.1875 -0.2223,-0.126 -0.4242,-0.26475 -0.5625,-0.46875 -0.1376,-0.204 -0.2152,-0.4355 -0.2813,-0.6875 -0.06,-0.258 -0.094,-0.5425 -0.094,-0.8125 0,-0.282 0.034,-0.5485 0.094,-0.8125 0.066,-0.264 0.1438,-0.4835 0.2813,-0.6875 0.1384,-0.21 0.3402,-0.38 0.5625,-0.5 0.2215,-0.1265 0.4946,-0.1875 0.8125,-0.1875 z"
         style="font-size:medium;font-style:normal;font-variant:normal;font-weight:normal;font-stretch:normal;text-indent:0;text-align:start;text-decoration:none;line-height:normal;letter-spacing:normal;word-spacing:normal;text-transform:none;direction:ltr;block-progression:tb;writing-mode:lr-tb;text-anchor:start;baseline-shift:baseline;opacity:0.5;color:#000000;fill:#ffffff;fill-opacity:1;fill-rule:nonzero;stroke:none;stroke-width:2;marker:none;visibility:visible;display:inline;overflow:visible;enable-background:accumulate;font-family:Sans;-inkscape-font-specification:Sans"
         inkscape:connector-curvature="0" />
    </g>
    <rect
       y="144"
       x="-12"
       height="56"
       width="56"
       id="rect7762"
       style="color:#000000;fill:#000000;fill-opacity:0;fill-rule:nonzero;stroke:none;stroke-width:1.5;marker:none;visibility:visible;display:inline;overflow:visible;enable-background:accumulate" />
    <path
       style="opacity:0.5;color:#000000;fill:#1a1a1a;fill-opacity:1;fill-rule:nonzero;stroke:none;stroke-width:10;marker:none;visibility:visible;display:inline;overflow:visible;enable-background:accumulate"
       d="m 13.875,148 0,10.57817 L 17.666536,160 19.75,160 c 0.512,0 1.02,-0.0595 1.5,-0.1875 0.4906,-0.128 0.9523,-0.27852 1.3125,-0.5625 1.0956,-0.86348 1.3125,-2.11756 1.3125,-3.0625 0,-0.90226 -0.273,-1.4986 -0.625,-2 -0.3414,-0.512 -0.8581,-0.7974 -1.5625,-1 0.5126,-0.2454 0.9315,-0.5535 1.1875,-0.9375 0.2666,-0.384 0.375,-0.8615 0.375,-1.4375 0,-0.5334 -0.068,-1.0124 -0.25,-1.375 -0.17,-0.3628 -0.43,-0.5991 -0.75,-0.8125 -0.32,-0.224 -0.7399,-0.404 -1.1875,-0.5 C 20.6139,148.029 20.1618,148 19.625,148 z m 11.3125,0 4.1875,7.5625 0,4.16076 2.5,-0.89286 0,-3.2054 4.25,-7.625 -2.8125,0 -2.625,5.125 L 28,148 z m -8.8125,1.9375 2.6875,0 c 0.2232,0 0.4849,0.0205 0.6875,0.0625 0.2134,0.032 0.4021,0.0915 0.5625,0.1875 0.16,0.096 0.279,0.2044 0.375,0.375 0.098,0.17 0.125,0.4207 0.125,0.6875 0,0.48 -0.1499,0.7866 -0.4375,1 -0.288,0.2132 -0.6774,0.35554 -1.125,0.375 l -2.875,0 z m 0,4.65625 3.125,0 c 0.544,0 0.9813,0.118 1.3125,0.375 0.33,0.2454 0.4375,0.6634 0.4375,1.25 0,0.2988 -0.023,0.90175 -0.125,1.09375 -0.096,0.192 -0.2044,0.3201 -0.375,0.4375 -0.17,0.106 -0.401,0.196 -0.625,0.25 -0.224,0.042 -0.4417,0.0625 -0.6875,0.0625 l -3.0625,0 z M 7,158 -5.1875,163.1875 C -6.40742,163.70673 -8,164.30925 -8,166 l 0,26 c 0,2.50005 0,4.52175 3.5,3 l 11.5,-5 16,6 14.1875,-5.1875 C 38.43265,190.35722 40,189.30925 40,188 l 0,-26 c 0,-3.49995 -0.199972,-4 -3,-3 l -14,5 z m -4.75,11.6875 c 0.9964,0 1.8442,0.152 2.625,0.5 0.7792,0.348 1.4592,0.8255 2,1.4375 0.5392,0.612 0.9612,1.3595 1.25,2.1875 0.2872,0.816 0.4375,1.665 0.4375,2.625 0,0.936 -0.1501,1.809 -0.4375,2.625 -0.2884,0.804 -0.7104,1.525 -1.25,2.125 -0.5408,0.6 -1.2206,1.0895 -2,1.4375 -0.7808,0.336 -1.6286,0.5 -2.625,0.5 -0.9836,0 -1.8955,-0.164 -2.6875,-0.5 -0.78,-0.348 -1.46,-0.8375 -2,-1.4375 -0.54,-0.6 -0.962,-1.321 -1.25,-2.125 -0.288,-0.816 -0.4375,-1.689 -0.4375,-2.625 0,-0.96 0.1501,-1.809 0.4375,-2.625 0.288,-0.828 0.71,-1.5755 1.25,-2.1875 0.54,-0.612 1.22,-1.0895 2,-1.4375 0.792,-0.348 1.7039,-0.5 2.6875,-0.5 z m 12.4375,0 c 0.6716,0 1.3255,0.094 1.9375,0.25 0.624,0.144 1.145,0.3515 1.625,0.6875 0.48,0.336 0.9107,0.7845 1.1875,1.3125 0.2876,0.516 0.4375,1.131 0.4375,1.875 l -2.75,0 c -0.024,-0.384 -0.106,-0.6855 -0.25,-0.9375 -0.132,-0.252 -0.3337,-0.481 -0.5625,-0.625 -0.2278,-0.144 -0.5125,-0.2525 -0.8125,-0.3125 -0.288,-0.06 -0.5891,-0.0625 -0.9375,-0.0625 -0.2278,0 -0.4595,0.0205 -0.6875,0.0625 -0.228,0.048 -0.433,0.13 -0.625,0.25 -0.18,0.12 -0.3171,0.2575 -0.4375,0.4375 -0.12,0.18 -0.1875,0.4115 -0.1875,0.6875 0,0.252 0.029,0.469 0.125,0.625 0.096,0.156 0.2871,0.3055 0.5625,0.4375 0.2884,0.132 0.6955,0.243 1.1875,0.375 0.504,0.132 1.1331,0.296 1.9375,0.5 0.2392,0.048 0.5792,0.1802 1,0.3125 0.4312,0.12 0.8925,0.2865 1.3125,0.5625 0.42,0.276 0.7631,0.657 1.0625,1.125 0.3124,0.456 0.4375,1.03 0.4375,1.75 0,0.588 -0.0841,1.1835 -0.3125,1.6875 -0.2288,0.504 -0.5444,0.9405 -1,1.3125 -0.4446,0.36 -1.0155,0.6085 -1.6875,0.8125 -0.66,0.204 -1.4373,0.3125 -2.3125,0.3125 -0.7088,0 -1.3905,-0.07 -2.0625,-0.25 -0.66,-0.168 -1.234,-0.4405 -1.75,-0.8125 -0.504,-0.372 -0.95,-0.8615 -1.25,-1.4375 -0.3,-0.576 -0.4501,-1.2705 -0.4375,-2.0625 l 2.75,0 c 0,0.432 0.094,0.825 0.25,1.125 0.156,0.3 0.3732,0.4955 0.625,0.6875 0.2646,0.18 0.5266,0.3415 0.875,0.4375 0.3478,0.084 0.7536,0.125 1.125,0.125 0.2524,0 0.5245,-0.0267 0.8125,-0.0625 0.288,-0.048 0.5597,-0.13 0.8125,-0.25 0.2518,-0.12 0.4572,-0.296 0.625,-0.5 0.168,-0.216 0.25,-0.4885 0.25,-0.8125 0,-0.348 -0.1462,-0.5965 -0.375,-0.8125 -0.2164,-0.216 -0.5146,-0.4185 -0.875,-0.5625 -0.3596,-0.144 -0.7315,-0.267 -1.1875,-0.375 -0.456,-0.108 -0.907,-0.243 -1.375,-0.375 -0.48,-0.12 -0.9809,-0.207 -1.4375,-0.375 -0.4556,-0.18 -0.8275,-0.4115 -1.1875,-0.6875 -0.36,-0.276 -0.7099,-0.6545 -0.9375,-1.0625 -0.2164,-0.42 -0.3125,-0.912 -0.3125,-1.5 0,-0.66 0.1621,-1.2075 0.4375,-1.6875 0.2884,-0.492 0.6682,-0.926 1.125,-1.25 0.4554,-0.324 0.9234,-0.5315 1.5,-0.6875 0.576,-0.156 1.1746,-0.21404 1.75,-0.25 z M 21.875,170 l 4,0 3.03125,8.8125 3.03125,-8.8125 4,0 0,12.8125 -2.6875,0 0,-9.0625 -3.375,9.0625 -2.1875,0 -3.125,-9 -0.0625,9 -2.625,0 z M 2.25,172.0625 c -0.6358,0 -1.182,0.122 -1.625,0.375 -0.4446,0.24 -0.8482,0.58 -1.125,1 -0.275,0.408 -0.4305,0.847 -0.5625,1.375 -0.12,0.528 -0.1875,1.061 -0.1875,1.625 0,0.54 0.0675,1.109 0.1875,1.625 0.132,0.504 0.2873,0.967 0.5625,1.375 0.2766,0.408 0.6804,0.6855 1.125,0.9375 0.4438,0.24 0.99,0.375 1.625,0.375 0.6364,0 1.1185,-0.134 1.5625,-0.375 0.444,-0.252 0.849,-0.5295 1.125,-0.9375 0.276,-0.408 0.4433,-0.871 0.5625,-1.375 0.132,-0.516 0.1875,-1.085 0.1875,-1.625 0,-0.564 -0.0535,-1.097 -0.1875,-1.625 -0.12,-0.528 -0.2865,-0.967 -0.5625,-1.375 -0.276,-0.42 -0.681,-0.76 -1.125,-1 -0.444,-0.252 -0.9257,-0.375 -1.5625,-0.375 z"
       id="path7865"
       inkscape:connector-curvature="0"
       sodipodi:nodetypes="cccsccscccscccsccccccccccccscccscccccscscccsccccsssccssssccscccscccscscscscsccsccccccscccssccccscscccsccsccsccscccsccsccscsccccccccccccccccccscccscccscscscccs" />
  </g>
</svg>
